<mxfile host="app.diagrams.net" modified="2024-06-21T00:57:54.034Z" agent="Mozilla/5.0 (Windows NT 10.0; Win64; x64) AppleWebKit/537.36 (KHTML, like Gecko) Chrome/126.0.0.0 Safari/537.36 Edg/126.0.0.0" version="24.6.0" etag="N7O3dHIf4tP-AVF_s06z" type="github">
  <diagram name="Page-1" id="1X_OXiLphzSqqiv-rImi">
    <mxGraphModel>
      <root>
        <mxCell id="0" />
        <mxCell id="1" parent="0" />
      </root>
    </mxGraphModel>
  </diagram>
</mxfile>
